<svg width="25" height="24" viewBox="0 0 25 24" fill="none" xmlns="http://www.w3.org/2000/svg">
<mask id="mask0_20_51" style="mask-type:alpha" maskUnits="userSpaceOnUse" x="0" y="0" width="25" height="24">
<rect x="0.5" width="24" height="24" fill="#D9D9D9"/>
</mask>
<g mask="url(#mask0_20_51)">
<path d="M12.5 12C13.05 12 13.5208 11.8042 13.9125 11.4125C14.3042 11.0208 14.5 10.55 14.5 10C14.5 9.45 14.3042 8.97917 13.9125 8.5875C13.5208 8.19583 13.05 8 12.5 8C11.95 8 11.4792 8.19583 11.0875 8.5875C10.6958 8.97917 10.5 9.45 10.5 10C10.5 10.55 10.6958 11.0208 11.0875 11.4125C11.4792 11.8042 11.95 12 12.5 12ZM12.5 22C9.81667 19.7167 7.8125 17.5958 6.4875 15.6375C5.1625 13.6792 4.5 11.8667 4.5 10.2C4.5 7.7 5.30417 5.70833 6.9125 4.225C8.52083 2.74167 10.3833 2 12.5 2C14.6167 2 16.4792 2.74167 18.0875 4.225C19.6958 5.70833 20.5 7.7 20.5 10.2C20.5 11.8667 19.8375 13.6792 18.5125 15.6375C17.1875 17.5958 15.1833 19.7167 12.5 22Z" fill="#2059EB"/>
</g>
</svg>
