<svg width="25" height="24" viewBox="0 0 25 24" fill="none" xmlns="http://www.w3.org/2000/svg">
<mask id="mask0_19_670" style="mask-type:alpha" maskUnits="userSpaceOnUse" x="0" y="0" width="25" height="24">
<rect x="0.5" width="24" height="24" fill="#D9D9D9"/>
</mask>
<g mask="url(#mask0_19_670)">
<path d="M18.5 13V11H22.5V13H18.5ZM19.7 20L16.5 17.6L17.7 16L20.9 18.4L19.7 20ZM17.7 8L16.5 6.4L19.7 4L20.9 5.6L17.7 8ZM5.5 19V15H4.5C3.95 15 3.47917 14.8042 3.0875 14.4125C2.69583 14.0208 2.5 13.55 2.5 13V11C2.5 10.45 2.69583 9.97917 3.0875 9.5875C3.47917 9.19583 3.95 9 4.5 9H8.5L13.5 6V18L8.5 15H7.5V19H5.5ZM14.5 15.35V8.65C14.95 9.05 15.3125 9.5375 15.5875 10.1125C15.8625 10.6875 16 11.3167 16 12C16 12.6833 15.8625 13.3125 15.5875 13.8875C15.3125 14.4625 14.95 14.95 14.5 15.35ZM4.5 11V13H9.05L11.5 14.45V9.55L9.05 11H4.5Z" fill="#B5B7B6"/>
</g>
</svg>
